<svg xmlns="http://www.w3.org/2000/svg" fill-rule="evenodd" shape-rendering="geometricPrecision" text-rendering="geometricPrecision" image-rendering="optimizeQuality" clip-rule="evenodd" viewBox="0 0 1873 1873">
  <path fill="#ef4324" fill-rule="nonzero" d="M984 1778c214-12 406-103 548-246 143-142 234-334 246-548H888v-94h890c-12-214-103-407-246-549-142-142-334-234-548-246v701h-94V95c-214 12-407 104-549 246C188 493 94 704 94 937c0 232 94 443 247 595 142 143 335 234 549 246v-701h94v701zm615-179c-170 169-404 274-662 274-259 0-493-105-663-274C105 1429 0 1195 0 937c0-259 105-493 274-663C444 105 678 0 937 0c258 0 492 105 662 274 169 170 274 404 274 663 0 258-105 492-274 662z"/>
</svg>