<svg xmlns="http://www.w3.org/2000/svg" fill-rule="evenodd" shape-rendering="geometricPrecision" text-rendering="geometricPrecision" image-rendering="optimizeQuality" clip-rule="evenodd" viewBox="0 0 7148 1873">
  <g fill-rule="nonzero">
    <path fill="#ef4324" d="M1946 1778c214-12 407-103 549-246 142-142 233-334 245-548h-889v-94h889c-12-214-103-407-245-549s-335-234-549-246v701h-94V95c-214 12-407 104-549 246-152 152-247 363-247 596 0 232 95 443 247 595 142 143 335 234 549 246v-701h94v701zm615-179c-169 169-403 274-662 274s-493-105-662-274c-170-170-275-404-275-662 0-259 105-493 275-663C1406 105 1640 0 1899 0s493 105 662 274c170 170 275 404 275 663 0 258-105 492-275 662z"/>
    <path fill="#FEFEFE" d="M548 923c0 33-6 65-17 95-11 31-27 57-48 79-20 23-45 41-73 54-29 13-61 19-96 19h-18v96h-44v-96h-18c-35 0-67-6-96-19s-53-30-74-53c-20-22-36-49-47-79S0 957 0 923c0-33 6-63 17-92s26-54 47-76c20-21 45-38 74-51 28-12 61-19 97-19h17v-80h44v80h17c36 0 68 6 97 19 29 12 53 29 74 50 20 21 36 46 47 75s17 60 17 94zm-47 1c0-30-4-57-14-82-9-24-22-45-38-63-17-17-37-30-60-40-23-9-48-14-76-14h-17v405h18c27 0 52-4 75-14s43-24 60-42c16-18 29-40 38-65 10-26 14-54 14-85zM252 725h-17c-28 0-53 5-76 15-23 9-43 23-60 40-16 18-29 39-39 63-9 25-14 51-14 81 0 31 5 60 14 86 10 25 23 47 39 65 17 18 37 31 60 41s48 14 75 14h18V725z"/>
    <path fill="#FEFEFE" d="M1015 1257l-72-197H668l-73 197h-48l239-634h42l237 634h-50zM821 726c-3-9-6-17-8-26-2-7-4-15-7-22h-2c-5 20-9 35-14 47l-107 295h245L821 726z"/>
    <path fill="#FEFEFE" d="M1512 1237c-51 21-105 31-160 31-87 0-158-29-213-87-54-58-82-135-82-228 0-103 30-186 89-248 60-62 135-93 226-93 49 0 96 8 140 23v47c-44-20-91-30-140-30-80 0-145 27-195 81s-74 126-74 216c0 86 23 154 71 204s108 75 181 75c59 0 111-11 157-34v43z"/>
    <path fill="#FEFEFE" d="M5949 1266V816c0-11 2-42 5-94h-1c-10 24-17 43-24 56l-225 488h-15l-226-486c-8-15-15-35-21-59h-3c3 28 4 56 4 84v461h-44V632h40l238 511c1 3 3 7 4 12l6 15c3 8 6 16 9 26h3l5-14c0-2 5-16 15-43l234-507h38v634h-42z"/>
    <path fill="#FEFEFE" d="M6468 1266l-73-197h-275l-73 197h-48l240-634h41l237 634h-49zm-195-531c-3-8-6-17-8-26-2-7-4-15-6-22h-2c-5 20-10 35-15 48l-106 294h244l-107-294z"/>
    <polygon fill="#FEFEFE" points="6525 1266 6525 632 6569 632 6569 1227 6813 1227 6813 632 6858 632 6858 1227 7103 1227 7103 632 7148 632 7148 1266"/>
    <path fill="#FEFEFE" d="M2277 1233v-96c45 28 99 42 164 42 57 0 105-17 141-51 37-34 58-82 62-142h-265v-88h265c-7-62-28-110-65-145-36-34-83-51-142-51s-112 12-160 37V638c46-17 102-26 167-26 93 0 169 30 227 91s87 142 87 243c0 95-28 173-84 232-56 60-130 90-221 90-70 0-128-12-176-35z"/>
    <polygon fill="#FEFEFE" points="3321 1257 3215 1257 3215 982 2916 982 2916 1257 2811 1257 2811 623 2916 623 2916 889 3215 889 3215 623 3321 623"/>
    <polygon fill="#FEFEFE" points="3762 1257 3405 1257 3405 623 3747 623 3747 712 3511 712 3511 892 3729 892 3729 981 3511 981 3511 1168 3762 1168"/>
    <path fill="#FEFEFE" d="M3925 1027v230h-105V623h193c72 0 129 16 169 50s60 82 60 144-21 112-63 151c-41 40-98 59-170 59h-84zm0-318v232h68c45 0 80-10 103-31 24-21 36-51 36-89 0-74-44-112-130-112h-77z"/>
    <polygon fill="#FEFEFE" points="4656 723 4410 723 4410 1266 4305 1266 4305 632 4656 632"/>
    <path fill="#FEFEFE" d="M4972 1268c-91 0-165-30-220-89s-82-136-82-232c0-102 28-183 84-244s132-91 228-91c89 0 161 29 216 88 54 59 81 137 81 232 0 104-27 185-83 246-56 60-131 90-224 90zm5-564c-58 0-105 22-142 65-36 44-55 101-55 172 0 70 18 127 54 170 35 43 81 65 139 65 60 0 108-21 143-62 36-41 53-98 53-172 0-76-17-134-51-176-34-41-81-62-141-62z"/>
  </g>
</svg>