<svg xmlns="http://www.w3.org/2000/svg" viewBox="0 0 15 15.031">
  <path d="M14.661 11.891l-2.316-2.329a1.2 1.2 0 0 0-1.7.032l-1.167 1.173-.23-.129a10.956 10.956 0 0 1-4.84-4.867l-.125-.227.783-.785.385-.388a1.216 1.216 0 0 0 .031-1.711L3.164.331a1.2 1.2 0 0 0-1.7.032l-.653.66.018.018a3.8 3.8 0 0 0-.538.953 3.984 3.984 0 0 0-.239.968c-.306 2.55.853 4.878 4 8.039 4.346 4.369 7.848 4.039 8 4.023a3.924 3.924 0 0 0 .965-.244 3.728 3.728 0 0 0 .945-.538l.014.013.661-.652a1.219 1.219 0 0 0 .024-1.712z" />
</svg>