<svg xmlns="http://www.w3.org/2000/svg" width="19" height="20">
  <defs>
    <linearGradient id="a" x1="0%" x2="0%" y1="100%" y2="0%">
      <stop offset="0%" stop-color="#309EED"/>
      <stop offset="100%" stop-color="#30BDE3"/>
    </linearGradient>
  </defs>
  <path fill="#FFF" fill-rule="evenodd" d="M14.019 14.263c.392-.561.587-1.201.587-1.919 0-.587-.111-1.09-.332-1.507-.222-.405-.548-.751-.979-1.038-.208-.131-.433-.252-.675-.363-.241-.111-.505-.212-.792-.303-.287-.105-.59-.196-.91-.274-.32-.079-.656-.157-1.008-.235-.522-.118-.92-.216-1.193-.294-.118-.026-.232-.062-.343-.108-.111-.046-.225-.094-.342-.147-.222-.117-.392-.248-.509-.391-.118-.157-.176-.327-.176-.509 0-.314.176-.588.528-.823.365-.248.868-.372 1.507-.372.652 0 1.128.111 1.428.333.287.235.548.555.783.96.183.313.352.541.509.685.169.157.417.235.743.235.339 0 .633-.124.881-.372.235-.248.352-.529.352-.842 0-.314-.091-.64-.274-.979-.183-.34-.463-.653-.841-.94-.379-.288-.848-.522-1.409-.705-.587-.183-1.259-.274-2.016-.274-.978 0-1.819.137-2.524.411-.73.261-1.291.646-1.683 1.155-.378.522-.567 1.103-.567 1.743 0 .705.182 1.279.548 1.723.378.47.874.836 1.487 1.097.587.248 1.337.47 2.25.666.339.065.639.13.9.195.261.066.489.131.685.196.365.118.672.288.92.509.222.222.333.497.333.823 0 .431-.216.79-.646 1.077-.444.3-1.024.45-1.742.45-.535 0-.945-.078-1.232-.235-.313-.143-.555-.326-.724-.548-.196-.261-.366-.555-.509-.881-.144-.34-.307-.588-.489-.744-.209-.17-.464-.255-.764-.255-.352 0-.652.111-.9.333-.248.222-.371.489-.371.803 0 .509.189 1.031.567 1.566.339.523.809.94 1.409 1.254.796.43 1.826.646 3.092.646 1.043 0 1.937-.157 2.68-.47.757-.313 1.344-.757 1.761-1.332zm3.992-2.271c.339.705.509 1.449.509 2.232 0 .692-.131 1.342-.392 1.949-.26.607-.616 1.135-1.066 1.586-.45.45-.978.806-1.585 1.067-.606.261-1.256.392-1.947.392-.43 0-.844-.053-1.242-.157-.398-.104-.767-.248-1.106-.431-.261.039-.525.072-.792.098-.268.026-.532.039-.793.039-1.187 0-2.302-.225-3.346-.675-1.043-.451-1.957-1.067-2.739-1.851-.783-.783-1.399-1.697-1.849-2.741-.451-1.045-.676-2.161-.676-3.349 0-.587.059-1.168.177-1.743C.707 7.677.479 6.835.479 5.882c0-.692.13-1.341.391-1.948s.616-1.136 1.066-1.586c.45-.451.979-.807 1.585-1.068.607-.261 1.256-.391 1.947-.391.496 0 .966.068 1.409.205.444.138.861.324 1.253.558.469-.078.958-.117 1.467-.117 1.187 0 2.302.225 3.346.676 1.044.45 1.957 1.067 2.74 1.85.782.783 1.399 1.697 1.849 2.742.45 1.044.675 2.16.675 3.348 0 .313-.017.624-.049.93-.033.307-.082.611-.147.911z"/>
  <path fill="url(#a)" d="M14.019 14.263c.392-.561.587-1.201.587-1.919 0-.587-.111-1.09-.332-1.507-.222-.405-.548-.751-.979-1.038-.208-.131-.433-.252-.675-.363-.241-.111-.505-.212-.792-.303-.287-.105-.59-.196-.91-.274-.32-.079-.656-.157-1.008-.235-.522-.118-.92-.216-1.193-.294-.118-.026-.232-.062-.343-.108-.111-.046-.225-.094-.342-.147-.222-.117-.392-.248-.509-.391-.118-.157-.176-.327-.176-.509 0-.314.176-.588.528-.823.365-.248.868-.372 1.507-.372.652 0 1.128.111 1.428.333.287.235.548.555.783.96.183.313.352.541.509.685.169.157.417.235.743.235.339 0 .633-.124.881-.372.235-.248.352-.529.352-.842 0-.314-.091-.64-.274-.979-.183-.34-.463-.653-.841-.94-.379-.288-.848-.522-1.409-.705-.587-.183-1.259-.274-2.016-.274-.978 0-1.819.137-2.524.411-.73.261-1.291.646-1.683 1.155-.378.522-.567 1.103-.567 1.743 0 .705.182 1.279.548 1.723.378.47.874.836 1.487 1.097.587.248 1.337.47 2.25.666.339.065.639.13.9.195.261.066.489.131.685.196.365.118.672.288.92.509.222.222.333.497.333.823 0 .431-.216.79-.646 1.077-.444.3-1.024.45-1.742.45-.535 0-.945-.078-1.232-.235-.313-.143-.555-.326-.724-.548-.196-.261-.366-.555-.509-.881-.144-.34-.307-.588-.489-.744-.209-.17-.464-.255-.764-.255-.352 0-.652.111-.9.333-.248.222-.371.489-.371.803 0 .509.189 1.031.567 1.566.339.523.809.94 1.409 1.254.796.43 1.826.646 3.092.646 1.043 0 1.937-.157 2.68-.47.757-.313 1.344-.757 1.761-1.332zm3.992-2.271c.339.705.509 1.449.509 2.232 0 .692-.131 1.342-.392 1.949-.26.607-.616 1.135-1.066 1.586-.45.45-.978.806-1.585 1.067-.606.261-1.256.392-1.947.392-.43 0-.844-.053-1.242-.157-.398-.104-.767-.248-1.106-.431-.261.039-.525.072-.792.098-.268.026-.532.039-.793.039-1.187 0-2.302-.225-3.346-.675-1.043-.451-1.957-1.067-2.739-1.851-.783-.783-1.399-1.697-1.849-2.741-.451-1.045-.676-2.161-.676-3.349 0-.587.059-1.168.177-1.743C.707 7.677.479 6.835.479 5.882c0-.692.13-1.341.391-1.948s.616-1.136 1.066-1.586c.45-.451.979-.807 1.585-1.068.607-.261 1.256-.391 1.947-.391.496 0 .966.068 1.409.205.444.138.861.324 1.253.558.469-.078.958-.117 1.467-.117 1.187 0 2.302.225 3.346.676 1.044.45 1.957 1.067 2.74 1.85.782.783 1.399 1.697 1.849 2.742.45 1.044.675 2.16.675 3.348 0 .313-.017.624-.049.93-.033.307-.082.611-.147.911z"/>
</svg>