<svg version="1" xmlns="http://www.w3.org/2000/svg" width="933.333" height="933.333" viewBox="0 0 700.000000 700.000000"><path d="M329.8.5c-.1.1-4.1.5-8.8.9-10 .7-22.5 2.2-29.5 3.6-2.7.5-6.1 1.2-7.5 1.4-30.7 5.6-65.3 17.5-94 32.4C103.5 83.5 40.4 160.4 13.5 254c-1.9 6.7-3.7 13.4-4 14.8-.3 1.5-.7 3.8-1 5.2-1.8 7.9-4.4 22.3-5 27.5-.4 3.3-.9 6.9-1.1 8-1.8 9.8-2.5 57.1-1.1 71.5.9 8.1 2.5 20.6 3.3 25.5.3 1.6.7 4.3.9 5.9l.9 4.5c.3.9.8 3.1 1.1 4.9.3 1.8 2.1 9.2 3.9 16.5C42.7 559.6 137.9 655.5 259.5 688c13.2 3.5 34.1 7.7 42.7 8.6 3.5.3 6.5.7 6.8.9 3 1.8 55 2.6 71.5 1.2 15.3-1.4 36.7-4.7 47-7.4 3.3-.8 6.7-1.6 7.5-1.8 7.9-1.6 37.8-11.4 47.5-15.5 1.7-.8 3.2-1.4 3.5-1.5 4.3-1.5 25.6-11.8 33.5-16.3 3.3-1.9 7.6-4.3 9.5-5.4 7.2-4.2 26.8-17.6 36-24.7 76.6-59.5 125.5-149.6 133.8-246.6 1.3-15.6.4-67.7-1.3-70.4-.1-.4-.6-3.3-.9-6.6-.3-3.3-.8-6.9-1-8-.2-1.1-1.1-6.1-2.1-11-12.6-67.5-47.5-132.9-97-182-13.6-13.5-27-24.7-43-36.1-34.8-24.9-73-42.8-115-53.9-17.9-4.8-26.2-6.3-55.5-10.1-4.7-.6-52.6-1.5-53.2-.9zm2.7 164.8c0 71.1.3 129.9.6 130.7.6 1.3 3.5 1.5 17.6 1.5h16.8V166.8c0-86.5.3-130.8 1-130.9 1.3-.2.7-.2 10 .5 25.8 2 55.3 8.8 83 19.1 11.7 4.3 35.7 15.8 45.1 21.5 3.6 2.2 6.8 4 7 4 .8 0 15.7 10.2 25.1 17.2 50.3 37.5 89.4 91.4 109.6 150.8 5.1 15 11.2 40 13.2 54.7.3 1.8.7 4.9 1 6.9.3 1.9.8 7 1.1 11.1.3 4.2.5 7.9.6 8.2 0 .3 0 1.1-.1 1.7-.1.7-49.4 1-166.1 1l-166-.1-.1 5.5c-.2 13.2.1 28.2.5 28.9.3.4 74.7.8 165.4.8s165.4.3 166 .7c.7.4 1 1.1.8 1.5-.3.3-.7 4.1-1 8.3-1.8 25.3-8.9 56.1-19.4 84.4-12.3 33.1-36.4 72.2-60.2 97.8-11.6 12.5-30.7 30.7-36.4 34.5-1.2.8-2.3 1.8-2.6 2.1-1.1 1.3-13 10-21.5 15.7-42.6 28.4-91.8 45.8-144 50.9-7.9.8-10.5.8-11.3 0-.3-.3-.6-59.2-.6-130.8l-.1-130.3h-17.2c-14.6 0-17.2.2-17.5 1.5-.2.8-.3 59.7-.3 130.7.1 90.3-.2 129.3-.9 129.4-.6.1-1.3.1-1.6.1-26-1.8-48.2-5.8-73-13.4-7.4-2.3-14.6-4.7-16-5.5-1.4-.7-3-1.3-3.6-1.3-2 0-21.6-9-34.3-15.6-52.4-27.6-97.6-71.4-127-123.1-10.6-18.7-22.4-46.2-27.6-64.3-2-6.7-6.5-25.2-7-28-.3-1.9-.7-4.6-1-6-.3-1.4-.8-3.6-1-5-.3-1.4-.8-4.5-1.1-7-.3-2.5-.7-5.8-1-7.5-2.5-18.2-2.4-66.9.1-76.5.2-.8.6-3.5.9-6 .3-2.5.7-5.4.9-6.5.3-1.1.7-3.6 1.1-5.5 2.1-11.5 3.3-16.6 6.8-29C75.3 165.4 149.8 86.5 247 52.5c11-3.8 38-11 45.3-12 2.3-.3 4.9-.8 5.7-1 2.7-.8 15.7-2.5 23.6-3 4.3-.4 8-.8 8.2-1 2.7-2.6 2.8 3.4 2.7 129.8z"/></svg>