<?xml version="1.0" standalone="no"?>
<!DOCTYPE svg PUBLIC "-//W3C//DTD SVG 20010904//EN"
 "http://www.w3.org/TR/2001/REC-SVG-20010904/DTD/svg10.dtd">
<svg version="1.0" xmlns="http://www.w3.org/2000/svg"
 width="16.000000pt" height="16.000000pt" viewBox="0 0 16.000000 16.000000"
 preserveAspectRatio="xMidYMid meet">
<metadata>
Created by potrace 1.11, written by Peter Selinger 2001-2013
</metadata>
<g transform="translate(0.000000,16.000000) scale(0.004706,-0.004706)"
fill="#000000" stroke="none">
<path d="M1540 3353 c-217 -21 -407 -76 -615 -179 -417 -206 -730 -576 -856
-1012 -17 -59 -33 -118 -35 -132 -2 -14 -7 -36 -10 -50 -19 -83 -26 -365 -11
-485 45 -375 244 -753 535 -1014 219 -197 533 -356 803 -405 46 -9 98 -18 114
-21 56 -11 359 -14 435 -4 215 28 384 79 575 175 170 84 295 174 431 309 152
151 231 259 320 437 82 161 145 370 162 531 9 92 9 313 -1 397 -46 410 -274
815 -606 1079 -312 248 -649 370 -1041 375 -91 1 -181 1 -200 -1z m503 -273
c23 -6 49 -12 58 -14 8 -2 51 -16 95 -31 317 -109 611 -353 782 -650 82 -143
153 -354 168 -500 l7 -65 -787 0 -786 0 0 -120 0 -120 788 -2 789 -3 -18 -108
c-51 -298 -201 -576 -427 -788 -130 -122 -282 -217 -483 -303 -56 -24 -260
-74 -331 -82 -35 -3 -66 -8 -70 -11 -5 -2 -8 232 -8 521 l0 526 -120 0 -120 0
0 -519 c0 -286 -3 -522 -7 -524 -17 -9 -234 35 -337 69 -217 70 -413 190 -571
349 -124 123 -163 173 -243 310 -83 144 -154 355 -170 505 -9 87 -9 300 1 375
30 228 148 497 298 681 47 58 195 201 249 241 132 98 284 178 435 228 88 30
257 65 310 65 l35 0 0 -520 0 -520 120 0 120 0 0 518 c0 285 2 521 5 524 6 6
150 -16 218 -32z"/>
</g>
</svg>
